<svg version="1.1" xmlns="http://www.w3.org/2000/svg" width="400px" height="400px" viewBox="0 0 400 400" preserveAspectRatio="xMinYMin meet" xmlns:svgjs="http://svgjs.com/svgjs">
    <rect width="100%" height="100%" fill="#ffffff" cx="0" cy="0"></rect>
    <path
        d="M18,18l11,0 0,11 -11,0 0,-11z M29,18l11,0 0,11 -11,0 0,-11z M40,18l11,0 0,11 -11,0 0,-11z M51,18l11,0 0,11 -11,0 0,-11z M62,18l11,0 0,11 -11,0 0,-11z M73,18l11,0 0,11 -11,0 0,-11z M84,18l11,0 0,11 -11,0 0,-11z M139,18l11,0 0,11 -11,0 0,-11z M183,18l11,0 0,11 -11,0 0,-11z M194,18l11,0 0,11 -11,0 0,-11z M216,18l11,0 0,11 -11,0 0,-11z M260,18l11,0 0,11 -11,0 0,-11z M282,18l11,0 0,11 -11,0 0,-11z M304,18l11,0 0,11 -11,0 0,-11z M315,18l11,0 0,11 -11,0 0,-11z M326,18l11,0 0,11 -11,0 0,-11z M337,18l11,0 0,11 -11,0 0,-11z M348,18l11,0 0,11 -11,0 0,-11z M359,18l11,0 0,11 -11,0 0,-11z M370,18l11,0 0,11 -11,0 0,-11z M18,29l11,0 0,11 -11,0 0,-11z M84,29l11,0 0,11 -11,0 0,-11z M117,29l11,0 0,11 -11,0 0,-11z M139,29l11,0 0,11 -11,0 0,-11z M161,29l11,0 0,11 -11,0 0,-11z M172,29l11,0 0,11 -11,0 0,-11z M183,29l11,0 0,11 -11,0 0,-11z M194,29l11,0 0,11 -11,0 0,-11z M205,29l11,0 0,11 -11,0 0,-11z M227,29l11,0 0,11 -11,0 0,-11z M238,29l11,0 0,11 -11,0 0,-11z M249,29l11,0 0,11 -11,0 0,-11z M260,29l11,0 0,11 -11,0 0,-11z M282,29l11,0 0,11 -11,0 0,-11z M304,29l11,0 0,11 -11,0 0,-11z M370,29l11,0 0,11 -11,0 0,-11z M18,40l11,0 0,11 -11,0 0,-11z M40,40l11,0 0,11 -11,0 0,-11z M51,40l11,0 0,11 -11,0 0,-11z M62,40l11,0 0,11 -11,0 0,-11z M84,40l11,0 0,11 -11,0 0,-11z M106,40l11,0 0,11 -11,0 0,-11z M117,40l11,0 0,11 -11,0 0,-11z M139,40l11,0 0,11 -11,0 0,-11z M150,40l11,0 0,11 -11,0 0,-11z M161,40l11,0 0,11 -11,0 0,-11z M172,40l11,0 0,11 -11,0 0,-11z M216,40l11,0 0,11 -11,0 0,-11z M227,40l11,0 0,11 -11,0 0,-11z M249,40l11,0 0,11 -11,0 0,-11z M260,40l11,0 0,11 -11,0 0,-11z M271,40l11,0 0,11 -11,0 0,-11z M282,40l11,0 0,11 -11,0 0,-11z M304,40l11,0 0,11 -11,0 0,-11z M326,40l11,0 0,11 -11,0 0,-11z M337,40l11,0 0,11 -11,0 0,-11z M348,40l11,0 0,11 -11,0 0,-11z M370,40l11,0 0,11 -11,0 0,-11z M18,51l11,0 0,11 -11,0 0,-11z M40,51l11,0 0,11 -11,0 0,-11z M51,51l11,0 0,11 -11,0 0,-11z M62,51l11,0 0,11 -11,0 0,-11z M84,51l11,0 0,11 -11,0 0,-11z M106,51l11,0 0,11 -11,0 0,-11z M128,51l11,0 0,11 -11,0 0,-11z M183,51l11,0 0,11 -11,0 0,-11z M205,51l11,0 0,11 -11,0 0,-11z M249,51l11,0 0,11 -11,0 0,-11z M271,51l11,0 0,11 -11,0 0,-11z M304,51l11,0 0,11 -11,0 0,-11z M326,51l11,0 0,11 -11,0 0,-11z M337,51l11,0 0,11 -11,0 0,-11z M348,51l11,0 0,11 -11,0 0,-11z M370,51l11,0 0,11 -11,0 0,-11z M18,62l11,0 0,11 -11,0 0,-11z M40,62l11,0 0,11 -11,0 0,-11z M51,62l11,0 0,11 -11,0 0,-11z M62,62l11,0 0,11 -11,0 0,-11z M84,62l11,0 0,11 -11,0 0,-11z M128,62l11,0 0,11 -11,0 0,-11z M183,62l11,0 0,11 -11,0 0,-11z M194,62l11,0 0,11 -11,0 0,-11z M216,62l11,0 0,11 -11,0 0,-11z M227,62l11,0 0,11 -11,0 0,-11z M304,62l11,0 0,11 -11,0 0,-11z M326,62l11,0 0,11 -11,0 0,-11z M337,62l11,0 0,11 -11,0 0,-11z M348,62l11,0 0,11 -11,0 0,-11z M370,62l11,0 0,11 -11,0 0,-11z M18,73l11,0 0,11 -11,0 0,-11z M84,73l11,0 0,11 -11,0 0,-11z M117,73l11,0 0,11 -11,0 0,-11z M139,73l11,0 0,11 -11,0 0,-11z M161,73l11,0 0,11 -11,0 0,-11z M205,73l11,0 0,11 -11,0 0,-11z M216,73l11,0 0,11 -11,0 0,-11z M227,73l11,0 0,11 -11,0 0,-11z M238,73l11,0 0,11 -11,0 0,-11z M260,73l11,0 0,11 -11,0 0,-11z M271,73l11,0 0,11 -11,0 0,-11z M282,73l11,0 0,11 -11,0 0,-11z M304,73l11,0 0,11 -11,0 0,-11z M370,73l11,0 0,11 -11,0 0,-11z M18,84l11,0 0,11 -11,0 0,-11z M29,84l11,0 0,11 -11,0 0,-11z M40,84l11,0 0,11 -11,0 0,-11z M51,84l11,0 0,11 -11,0 0,-11z M62,84l11,0 0,11 -11,0 0,-11z M73,84l11,0 0,11 -11,0 0,-11z M84,84l11,0 0,11 -11,0 0,-11z M106,84l11,0 0,11 -11,0 0,-11z M128,84l11,0 0,11 -11,0 0,-11z M150,84l11,0 0,11 -11,0 0,-11z M172,84l11,0 0,11 -11,0 0,-11z M194,84l11,0 0,11 -11,0 0,-11z M216,84l11,0 0,11 -11,0 0,-11z M238,84l11,0 0,11 -11,0 0,-11z M260,84l11,0 0,11 -11,0 0,-11z M282,84l11,0 0,11 -11,0 0,-11z M304,84l11,0 0,11 -11,0 0,-11z M315,84l11,0 0,11 -11,0 0,-11z M326,84l11,0 0,11 -11,0 0,-11z M337,84l11,0 0,11 -11,0 0,-11z M348,84l11,0 0,11 -11,0 0,-11z M359,84l11,0 0,11 -11,0 0,-11z M370,84l11,0 0,11 -11,0 0,-11z M117,95l11,0 0,11 -11,0 0,-11z M128,95l11,0 0,11 -11,0 0,-11z M150,95l11,0 0,11 -11,0 0,-11z M183,95l11,0 0,11 -11,0 0,-11z M216,95l11,0 0,11 -11,0 0,-11z M271,95l11,0 0,11 -11,0 0,-11z M282,95l11,0 0,11 -11,0 0,-11z M51,106l11,0 0,11 -11,0 0,-11z M62,106l11,0 0,11 -11,0 0,-11z M84,106l11,0 0,11 -11,0 0,-11z M95,106l11,0 0,11 -11,0 0,-11z M117,106l11,0 0,11 -11,0 0,-11z M128,106l11,0 0,11 -11,0 0,-11z M139,106l11,0 0,11 -11,0 0,-11z M150,106l11,0 0,11 -11,0 0,-11z M161,106l11,0 0,11 -11,0 0,-11z M172,106l11,0 0,11 -11,0 0,-11z M183,106l11,0 0,11 -11,0 0,-11z M205,106l11,0 0,11 -11,0 0,-11z M227,106l11,0 0,11 -11,0 0,-11z M271,106l11,0 0,11 -11,0 0,-11z M282,106l11,0 0,11 -11,0 0,-11z M337,106l11,0 0,11 -11,0 0,-11z M348,106l11,0 0,11 -11,0 0,-11z M29,117l11,0 0,11 -11,0 0,-11z M95,117l11,0 0,11 -11,0 0,-11z M139,117l11,0 0,11 -11,0 0,-11z M172,117l11,0 0,11 -11,0 0,-11z M194,117l11,0 0,11 -11,0 0,-11z M216,117l11,0 0,11 -11,0 0,-11z M260,117l11,0 0,11 -11,0 0,-11z M271,117l11,0 0,11 -11,0 0,-11z M293,117l11,0 0,11 -11,0 0,-11z M315,117l11,0 0,11 -11,0 0,-11z M326,117l11,0 0,11 -11,0 0,-11z M337,117l11,0 0,11 -11,0 0,-11z M29,128l11,0 0,11 -11,0 0,-11z M40,128l11,0 0,11 -11,0 0,-11z M51,128l11,0 0,11 -11,0 0,-11z M84,128l11,0 0,11 -11,0 0,-11z M95,128l11,0 0,11 -11,0 0,-11z M106,128l11,0 0,11 -11,0 0,-11z M117,128l11,0 0,11 -11,0 0,-11z M139,128l11,0 0,11 -11,0 0,-11z M227,128l11,0 0,11 -11,0 0,-11z M238,128l11,0 0,11 -11,0 0,-11z M249,128l11,0 0,11 -11,0 0,-11z M260,128l11,0 0,11 -11,0 0,-11z M271,128l11,0 0,11 -11,0 0,-11z M282,128l11,0 0,11 -11,0 0,-11z M315,128l11,0 0,11 -11,0 0,-11z M348,128l11,0 0,11 -11,0 0,-11z M359,128l11,0 0,11 -11,0 0,-11z M370,128l11,0 0,11 -11,0 0,-11z M18,139l11,0 0,11 -11,0 0,-11z M29,139l11,0 0,11 -11,0 0,-11z M40,139l11,0 0,11 -11,0 0,-11z M51,139l11,0 0,11 -11,0 0,-11z M95,139l11,0 0,11 -11,0 0,-11z M106,139l11,0 0,11 -11,0 0,-11z M117,139l11,0 0,11 -11,0 0,-11z M139,139l11,0 0,11 -11,0 0,-11z M150,139l11,0 0,11 -11,0 0,-11z M172,139l11,0 0,11 -11,0 0,-11z M194,139l11,0 0,11 -11,0 0,-11z M205,139l11,0 0,11 -11,0 0,-11z M216,139l11,0 0,11 -11,0 0,-11z M238,139l11,0 0,11 -11,0 0,-11z M271,139l11,0 0,11 -11,0 0,-11z M315,139l11,0 0,11 -11,0 0,-11z M326,139l11,0 0,11 -11,0 0,-11z M337,139l11,0 0,11 -11,0 0,-11z M348,139l11,0 0,11 -11,0 0,-11z M359,139l11,0 0,11 -11,0 0,-11z M370,139l11,0 0,11 -11,0 0,-11z M18,150l11,0 0,11 -11,0 0,-11z M62,150l11,0 0,11 -11,0 0,-11z M84,150l11,0 0,11 -11,0 0,-11z M95,150l11,0 0,11 -11,0 0,-11z M117,150l11,0 0,11 -11,0 0,-11z M139,150l11,0 0,11 -11,0 0,-11z M172,150l11,0 0,11 -11,0 0,-11z M205,150l11,0 0,11 -11,0 0,-11z M227,150l11,0 0,11 -11,0 0,-11z M271,150l11,0 0,11 -11,0 0,-11z M282,150l11,0 0,11 -11,0 0,-11z M304,150l11,0 0,11 -11,0 0,-11z M315,150l11,0 0,11 -11,0 0,-11z M337,150l11,0 0,11 -11,0 0,-11z M370,150l11,0 0,11 -11,0 0,-11z M18,161l11,0 0,11 -11,0 0,-11z M29,161l11,0 0,11 -11,0 0,-11z M51,161l11,0 0,11 -11,0 0,-11z M117,161l11,0 0,11 -11,0 0,-11z M128,161l11,0 0,11 -11,0 0,-11z M139,161l11,0 0,11 -11,0 0,-11z M161,161l11,0 0,11 -11,0 0,-11z M183,161l11,0 0,11 -11,0 0,-11z M194,161l11,0 0,11 -11,0 0,-11z M227,161l11,0 0,11 -11,0 0,-11z M249,161l11,0 0,11 -11,0 0,-11z M271,161l11,0 0,11 -11,0 0,-11z M282,161l11,0 0,11 -11,0 0,-11z M337,161l11,0 0,11 -11,0 0,-11z M348,161l11,0 0,11 -11,0 0,-11z M359,161l11,0 0,11 -11,0 0,-11z M29,172l11,0 0,11 -11,0 0,-11z M51,172l11,0 0,11 -11,0 0,-11z M73,172l11,0 0,11 -11,0 0,-11z M84,172l11,0 0,11 -11,0 0,-11z M95,172l11,0 0,11 -11,0 0,-11z M139,172l11,0 0,11 -11,0 0,-11z M161,172l11,0 0,11 -11,0 0,-11z M282,172l11,0 0,11 -11,0 0,-11z M315,172l11,0 0,11 -11,0 0,-11z M326,172l11,0 0,11 -11,0 0,-11z M29,183l11,0 0,11 -11,0 0,-11z M40,183l11,0 0,11 -11,0 0,-11z M62,183l11,0 0,11 -11,0 0,-11z M95,183l11,0 0,11 -11,0 0,-11z M106,183l11,0 0,11 -11,0 0,-11z M117,183l11,0 0,11 -11,0 0,-11z M139,183l11,0 0,11 -11,0 0,-11z M161,183l11,0 0,11 -11,0 0,-11z M172,183l11,0 0,11 -11,0 0,-11z M194,183l11,0 0,11 -11,0 0,-11z M216,183l11,0 0,11 -11,0 0,-11z M227,183l11,0 0,11 -11,0 0,-11z M271,183l11,0 0,11 -11,0 0,-11z M282,183l11,0 0,11 -11,0 0,-11z M293,183l11,0 0,11 -11,0 0,-11z M304,183l11,0 0,11 -11,0 0,-11z M315,183l11,0 0,11 -11,0 0,-11z M326,183l11,0 0,11 -11,0 0,-11z M337,183l11,0 0,11 -11,0 0,-11z M348,183l11,0 0,11 -11,0 0,-11z M62,194l11,0 0,11 -11,0 0,-11z M73,194l11,0 0,11 -11,0 0,-11z M84,194l11,0 0,11 -11,0 0,-11z M117,194l11,0 0,11 -11,0 0,-11z M128,194l11,0 0,11 -11,0 0,-11z M139,194l11,0 0,11 -11,0 0,-11z M150,194l11,0 0,11 -11,0 0,-11z M161,194l11,0 0,11 -11,0 0,-11z M172,194l11,0 0,11 -11,0 0,-11z M183,194l11,0 0,11 -11,0 0,-11z M194,194l11,0 0,11 -11,0 0,-11z M216,194l11,0 0,11 -11,0 0,-11z M227,194l11,0 0,11 -11,0 0,-11z M238,194l11,0 0,11 -11,0 0,-11z M271,194l11,0 0,11 -11,0 0,-11z M293,194l11,0 0,11 -11,0 0,-11z M304,194l11,0 0,11 -11,0 0,-11z M315,194l11,0 0,11 -11,0 0,-11z M326,194l11,0 0,11 -11,0 0,-11z M337,194l11,0 0,11 -11,0 0,-11z M370,194l11,0 0,11 -11,0 0,-11z M18,205l11,0 0,11 -11,0 0,-11z M40,205l11,0 0,11 -11,0 0,-11z M62,205l11,0 0,11 -11,0 0,-11z M128,205l11,0 0,11 -11,0 0,-11z M161,205l11,0 0,11 -11,0 0,-11z M183,205l11,0 0,11 -11,0 0,-11z M194,205l11,0 0,11 -11,0 0,-11z M216,205l11,0 0,11 -11,0 0,-11z M227,205l11,0 0,11 -11,0 0,-11z M260,205l11,0 0,11 -11,0 0,-11z M282,205l11,0 0,11 -11,0 0,-11z M293,205l11,0 0,11 -11,0 0,-11z M304,205l11,0 0,11 -11,0 0,-11z M315,205l11,0 0,11 -11,0 0,-11z M326,205l11,0 0,11 -11,0 0,-11z M337,205l11,0 0,11 -11,0 0,-11z M359,205l11,0 0,11 -11,0 0,-11z M370,205l11,0 0,11 -11,0 0,-11z M18,216l11,0 0,11 -11,0 0,-11z M84,216l11,0 0,11 -11,0 0,-11z M95,216l11,0 0,11 -11,0 0,-11z M117,216l11,0 0,11 -11,0 0,-11z M161,216l11,0 0,11 -11,0 0,-11z M172,216l11,0 0,11 -11,0 0,-11z M205,216l11,0 0,11 -11,0 0,-11z M216,216l11,0 0,11 -11,0 0,-11z M260,216l11,0 0,11 -11,0 0,-11z M271,216l11,0 0,11 -11,0 0,-11z M337,216l11,0 0,11 -11,0 0,-11z M348,216l11,0 0,11 -11,0 0,-11z M370,216l11,0 0,11 -11,0 0,-11z M73,227l11,0 0,11 -11,0 0,-11z M95,227l11,0 0,11 -11,0 0,-11z M150,227l11,0 0,11 -11,0 0,-11z M161,227l11,0 0,11 -11,0 0,-11z M172,227l11,0 0,11 -11,0 0,-11z M205,227l11,0 0,11 -11,0 0,-11z M227,227l11,0 0,11 -11,0 0,-11z M238,227l11,0 0,11 -11,0 0,-11z M260,227l11,0 0,11 -11,0 0,-11z M271,227l11,0 0,11 -11,0 0,-11z M282,227l11,0 0,11 -11,0 0,-11z M315,227l11,0 0,11 -11,0 0,-11z M337,227l11,0 0,11 -11,0 0,-11z M348,227l11,0 0,11 -11,0 0,-11z M370,227l11,0 0,11 -11,0 0,-11z M18,238l11,0 0,11 -11,0 0,-11z M29,238l11,0 0,11 -11,0 0,-11z M40,238l11,0 0,11 -11,0 0,-11z M62,238l11,0 0,11 -11,0 0,-11z M73,238l11,0 0,11 -11,0 0,-11z M84,238l11,0 0,11 -11,0 0,-11z M95,238l11,0 0,11 -11,0 0,-11z M128,238l11,0 0,11 -11,0 0,-11z M150,238l11,0 0,11 -11,0 0,-11z M194,238l11,0 0,11 -11,0 0,-11z M205,238l11,0 0,11 -11,0 0,-11z M216,238l11,0 0,11 -11,0 0,-11z M282,238l11,0 0,11 -11,0 0,-11z M315,238l11,0 0,11 -11,0 0,-11z M337,238l11,0 0,11 -11,0 0,-11z M359,238l11,0 0,11 -11,0 0,-11z M18,249l11,0 0,11 -11,0 0,-11z M29,249l11,0 0,11 -11,0 0,-11z M51,249l11,0 0,11 -11,0 0,-11z M117,249l11,0 0,11 -11,0 0,-11z M128,249l11,0 0,11 -11,0 0,-11z M139,249l11,0 0,11 -11,0 0,-11z M161,249l11,0 0,11 -11,0 0,-11z M194,249l11,0 0,11 -11,0 0,-11z M227,249l11,0 0,11 -11,0 0,-11z M238,249l11,0 0,11 -11,0 0,-11z M260,249l11,0 0,11 -11,0 0,-11z M271,249l11,0 0,11 -11,0 0,-11z M315,249l11,0 0,11 -11,0 0,-11z M326,249l11,0 0,11 -11,0 0,-11z M18,260l11,0 0,11 -11,0 0,-11z M73,260l11,0 0,11 -11,0 0,-11z M84,260l11,0 0,11 -11,0 0,-11z M106,260l11,0 0,11 -11,0 0,-11z M150,260l11,0 0,11 -11,0 0,-11z M172,260l11,0 0,11 -11,0 0,-11z M194,260l11,0 0,11 -11,0 0,-11z M205,260l11,0 0,11 -11,0 0,-11z M227,260l11,0 0,11 -11,0 0,-11z M238,260l11,0 0,11 -11,0 0,-11z M249,260l11,0 0,11 -11,0 0,-11z M260,260l11,0 0,11 -11,0 0,-11z M271,260l11,0 0,11 -11,0 0,-11z M304,260l11,0 0,11 -11,0 0,-11z M315,260l11,0 0,11 -11,0 0,-11z M348,260l11,0 0,11 -11,0 0,-11z M359,260l11,0 0,11 -11,0 0,-11z M370,260l11,0 0,11 -11,0 0,-11z M18,271l11,0 0,11 -11,0 0,-11z M40,271l11,0 0,11 -11,0 0,-11z M62,271l11,0 0,11 -11,0 0,-11z M106,271l11,0 0,11 -11,0 0,-11z M117,271l11,0 0,11 -11,0 0,-11z M128,271l11,0 0,11 -11,0 0,-11z M161,271l11,0 0,11 -11,0 0,-11z M172,271l11,0 0,11 -11,0 0,-11z M183,271l11,0 0,11 -11,0 0,-11z M227,271l11,0 0,11 -11,0 0,-11z M238,271l11,0 0,11 -11,0 0,-11z M260,271l11,0 0,11 -11,0 0,-11z M282,271l11,0 0,11 -11,0 0,-11z M315,271l11,0 0,11 -11,0 0,-11z M326,271l11,0 0,11 -11,0 0,-11z M348,271l11,0 0,11 -11,0 0,-11z M359,271l11,0 0,11 -11,0 0,-11z M370,271l11,0 0,11 -11,0 0,-11z M18,282l11,0 0,11 -11,0 0,-11z M29,282l11,0 0,11 -11,0 0,-11z M40,282l11,0 0,11 -11,0 0,-11z M62,282l11,0 0,11 -11,0 0,-11z M73,282l11,0 0,11 -11,0 0,-11z M84,282l11,0 0,11 -11,0 0,-11z M117,282l11,0 0,11 -11,0 0,-11z M139,282l11,0 0,11 -11,0 0,-11z M172,282l11,0 0,11 -11,0 0,-11z M216,282l11,0 0,11 -11,0 0,-11z M238,282l11,0 0,11 -11,0 0,-11z M282,282l11,0 0,11 -11,0 0,-11z M293,282l11,0 0,11 -11,0 0,-11z M304,282l11,0 0,11 -11,0 0,-11z M315,282l11,0 0,11 -11,0 0,-11z M326,282l11,0 0,11 -11,0 0,-11z M106,293l11,0 0,11 -11,0 0,-11z M117,293l11,0 0,11 -11,0 0,-11z M128,293l11,0 0,11 -11,0 0,-11z M150,293l11,0 0,11 -11,0 0,-11z M161,293l11,0 0,11 -11,0 0,-11z M205,293l11,0 0,11 -11,0 0,-11z M216,293l11,0 0,11 -11,0 0,-11z M227,293l11,0 0,11 -11,0 0,-11z M271,293l11,0 0,11 -11,0 0,-11z M282,293l11,0 0,11 -11,0 0,-11z M326,293l11,0 0,11 -11,0 0,-11z M337,293l11,0 0,11 -11,0 0,-11z M359,293l11,0 0,11 -11,0 0,-11z M18,304l11,0 0,11 -11,0 0,-11z M29,304l11,0 0,11 -11,0 0,-11z M40,304l11,0 0,11 -11,0 0,-11z M51,304l11,0 0,11 -11,0 0,-11z M62,304l11,0 0,11 -11,0 0,-11z M73,304l11,0 0,11 -11,0 0,-11z M84,304l11,0 0,11 -11,0 0,-11z M106,304l11,0 0,11 -11,0 0,-11z M117,304l11,0 0,11 -11,0 0,-11z M172,304l11,0 0,11 -11,0 0,-11z M205,304l11,0 0,11 -11,0 0,-11z M216,304l11,0 0,11 -11,0 0,-11z M227,304l11,0 0,11 -11,0 0,-11z M238,304l11,0 0,11 -11,0 0,-11z M249,304l11,0 0,11 -11,0 0,-11z M260,304l11,0 0,11 -11,0 0,-11z M271,304l11,0 0,11 -11,0 0,-11z M282,304l11,0 0,11 -11,0 0,-11z M304,304l11,0 0,11 -11,0 0,-11z M326,304l11,0 0,11 -11,0 0,-11z M337,304l11,0 0,11 -11,0 0,-11z M18,315l11,0 0,11 -11,0 0,-11z M84,315l11,0 0,11 -11,0 0,-11z M117,315l11,0 0,11 -11,0 0,-11z M150,315l11,0 0,11 -11,0 0,-11z M161,315l11,0 0,11 -11,0 0,-11z M172,315l11,0 0,11 -11,0 0,-11z M271,315l11,0 0,11 -11,0 0,-11z M282,315l11,0 0,11 -11,0 0,-11z M326,315l11,0 0,11 -11,0 0,-11z M337,315l11,0 0,11 -11,0 0,-11z M348,315l11,0 0,11 -11,0 0,-11z M359,315l11,0 0,11 -11,0 0,-11z M18,326l11,0 0,11 -11,0 0,-11z M40,326l11,0 0,11 -11,0 0,-11z M51,326l11,0 0,11 -11,0 0,-11z M62,326l11,0 0,11 -11,0 0,-11z M84,326l11,0 0,11 -11,0 0,-11z M106,326l11,0 0,11 -11,0 0,-11z M128,326l11,0 0,11 -11,0 0,-11z M139,326l11,0 0,11 -11,0 0,-11z M172,326l11,0 0,11 -11,0 0,-11z M183,326l11,0 0,11 -11,0 0,-11z M194,326l11,0 0,11 -11,0 0,-11z M205,326l11,0 0,11 -11,0 0,-11z M238,326l11,0 0,11 -11,0 0,-11z M249,326l11,0 0,11 -11,0 0,-11z M271,326l11,0 0,11 -11,0 0,-11z M282,326l11,0 0,11 -11,0 0,-11z M293,326l11,0 0,11 -11,0 0,-11z M304,326l11,0 0,11 -11,0 0,-11z M315,326l11,0 0,11 -11,0 0,-11z M326,326l11,0 0,11 -11,0 0,-11z M359,326l11,0 0,11 -11,0 0,-11z M18,337l11,0 0,11 -11,0 0,-11z M40,337l11,0 0,11 -11,0 0,-11z M51,337l11,0 0,11 -11,0 0,-11z M62,337l11,0 0,11 -11,0 0,-11z M84,337l11,0 0,11 -11,0 0,-11z M106,337l11,0 0,11 -11,0 0,-11z M117,337l11,0 0,11 -11,0 0,-11z M128,337l11,0 0,11 -11,0 0,-11z M150,337l11,0 0,11 -11,0 0,-11z M205,337l11,0 0,11 -11,0 0,-11z M227,337l11,0 0,11 -11,0 0,-11z M260,337l11,0 0,11 -11,0 0,-11z M271,337l11,0 0,11 -11,0 0,-11z M293,337l11,0 0,11 -11,0 0,-11z M315,337l11,0 0,11 -11,0 0,-11z M337,337l11,0 0,11 -11,0 0,-11z M370,337l11,0 0,11 -11,0 0,-11z M18,348l11,0 0,11 -11,0 0,-11z M40,348l11,0 0,11 -11,0 0,-11z M51,348l11,0 0,11 -11,0 0,-11z M62,348l11,0 0,11 -11,0 0,-11z M84,348l11,0 0,11 -11,0 0,-11z M139,348l11,0 0,11 -11,0 0,-11z M161,348l11,0 0,11 -11,0 0,-11z M172,348l11,0 0,11 -11,0 0,-11z M183,348l11,0 0,11 -11,0 0,-11z M227,348l11,0 0,11 -11,0 0,-11z M271,348l11,0 0,11 -11,0 0,-11z M282,348l11,0 0,11 -11,0 0,-11z M326,348l11,0 0,11 -11,0 0,-11z M348,348l11,0 0,11 -11,0 0,-11z M359,348l11,0 0,11 -11,0 0,-11z M370,348l11,0 0,11 -11,0 0,-11z M18,359l11,0 0,11 -11,0 0,-11z M84,359l11,0 0,11 -11,0 0,-11z M117,359l11,0 0,11 -11,0 0,-11z M216,359l11,0 0,11 -11,0 0,-11z M304,359l11,0 0,11 -11,0 0,-11z M337,359l11,0 0,11 -11,0 0,-11z M348,359l11,0 0,11 -11,0 0,-11z M359,359l11,0 0,11 -11,0 0,-11z M370,359l11,0 0,11 -11,0 0,-11z M18,370l11,0 0,11 -11,0 0,-11z M29,370l11,0 0,11 -11,0 0,-11z M40,370l11,0 0,11 -11,0 0,-11z M51,370l11,0 0,11 -11,0 0,-11z M62,370l11,0 0,11 -11,0 0,-11z M73,370l11,0 0,11 -11,0 0,-11z M84,370l11,0 0,11 -11,0 0,-11z M128,370l11,0 0,11 -11,0 0,-11z M139,370l11,0 0,11 -11,0 0,-11z M172,370l11,0 0,11 -11,0 0,-11z M183,370l11,0 0,11 -11,0 0,-11z M194,370l11,0 0,11 -11,0 0,-11z M216,370l11,0 0,11 -11,0 0,-11z M227,370l11,0 0,11 -11,0 0,-11z M271,370l11,0 0,11 -11,0 0,-11z M282,370l11,0 0,11 -11,0 0,-11z M326,370l11,0 0,11 -11,0 0,-11z "
        stroke="transparent" fill="#333333"></path>
    <defs id="SvgjsDefs1159"></defs>
    <text id="SvgjsText1162" font-family="sans-serif" x="52.68002319335938" svgjs:data="{&quot;leading&quot;:&quot;1.3&quot;}" y="234" fill="#ff9818" font-size="80px">
        <tspan id="SvgjsTspan1163">kjua-svg</tspan>
    </text>
</svg>